<?xml version="1.0" standalone="no"?>
<!DOCTYPE svg PUBLIC "-//W3C//DTD SVG 20010904//EN"
 "http://www.w3.org/TR/2001/REC-SVG-20010904/DTD/svg10.dtd">
<svg version="1.0" xmlns="http://www.w3.org/2000/svg"
 width="312.000000pt" height="360.000000pt" viewBox="0 0 312.000000 360.000000"
 preserveAspectRatio="xMidYMid meet">

<g transform="translate(0.000000,360.000000) scale(0.100000,-0.100000)"
fill="#000000" stroke="none">
<path d="M1507 3580 c-14 -11 -37 -45 -52 -75 -14 -30 -34 -59 -45 -65 -11 -6
-55 -54 -99 -108 -76 -92 -82 -97 -119 -98 -22 -1 -65 -13 -97 -28 -37 -17
-75 -26 -106 -26 -39 0 -50 -4 -60 -21 -25 -48 13 -138 90 -214 43 -42 51 -55
51 -87 0 -20 9 -77 21 -125 18 -78 19 -95 8 -154 -8 -45 -9 -85 -3 -125 l9
-59 75 3 c46 2 103 13 147 28 78 27 130 25 118 -5 -4 -9 -9 -38 -11 -66 -2
-27 -6 -59 -8 -70 -3 -11 -5 -30 -5 -43 -1 -23 -1 -23 -38 7 -92 73 -244 112
-309 78 -16 -8 -38 -24 -48 -36 -11 -12 -25 -21 -31 -21 -16 0 -82 -72 -97
-106 -6 -13 -14 -24 -17 -24 -16 0 -121 119 -134 150 -19 47 -71 90 -108 90
-30 0 -50 -22 -64 -70 -4 -13 -18 -32 -30 -42 -33 -26 -92 -118 -116 -182
l-22 -56 -52 0 c-100 0 -335 -83 -351 -125 -7 -18 13 -55 31 -55 7 0 16 -9 20
-20 13 -41 86 -138 125 -165 25 -17 40 -36 40 -49 0 -11 14 -59 31 -106 35
-99 51 -214 37 -270 -15 -60 -4 -87 39 -99 44 -13 114 10 216 69 61 35 71 38
95 28 15 -7 29 -13 31 -15 2 -1 -6 -18 -17 -37 -11 -19 -18 -37 -15 -40 10 -9
96 -7 112 3 11 7 11 15 3 40 l-11 30 84 -55 c74 -50 86 -62 114 -119 52 -105
166 -191 266 -203 44 -4 68 -28 44 -43 -7 -4 -9 -15 -5 -24 5 -15 14 -17 51
-12 l44 7 57 -68 57 -67 -59 -3 c-74 -4 -217 12 -309 35 l-70 18 -3 112 c-3
110 -3 112 -32 137 -16 13 -56 30 -87 38 -74 17 -304 16 -403 -1 -76 -13 -180
-54 -180 -72 0 -11 2 -12 83 -34 l57 -17 -37 -42 c-42 -48 -69 -93 -61 -101 3
-4 43 4 89 16 56 15 126 24 207 27 l122 4 2 -73 c1 -41 0 -90 -1 -111 -2 -31
3 -40 31 -60 71 -52 252 -115 398 -138 41 -6 143 -14 225 -18 l150 -7 3 -70
c5 -139 25 -153 35 -25 4 45 9 85 11 89 3 4 52 11 108 15 217 14 399 61 535
139 105 59 123 81 131 158 4 35 7 107 6 160 l-1 97 46 6 c48 6 171 -5 272 -25
33 -6 63 -9 66 -5 4 3 -7 20 -23 37 -28 30 -29 31 -9 45 10 8 34 20 52 26 18
7 32 17 30 23 -8 23 -88 55 -178 71 -192 34 -418 18 -489 -35 -22 -17 -25 -25
-22 -77 6 -132 29 -186 87 -209 17 -6 12 -11 -32 -31 -121 -54 -257 -87 -417
-100 -106 -8 -108 -19 24 135 79 93 102 113 140 126 127 43 266 206 286 337 9
57 169 278 197 272 9 -2 26 -6 36 -9 27 -8 44 25 32 58 -14 36 22 43 63 13 72
-54 215 -110 255 -99 26 7 29 21 51 238 5 50 18 114 29 143 12 29 21 67 21 86
0 28 5 36 30 46 17 7 43 29 59 49 36 45 101 169 101 192 0 45 -102 99 -267
142 -62 16 -83 26 -83 38 0 9 -16 39 -35 65 -19 27 -59 85 -89 129 -90 129
-109 149 -138 142 -14 -4 -41 -29 -64 -61 -21 -30 -46 -58 -56 -61 -18 -6
-146 -156 -174 -204 -17 -28 -23 -31 -69 -31 l-50 0 -29 55 c-26 50 -89 119
-129 141 -16 9 -15 15 8 84 14 40 25 92 25 115 0 39 3 43 58 79 62 40 108 99
118 152 4 24 12 34 28 36 13 2 22 11 24 26 4 29 -25 75 -43 68 -7 -2 -31 4
-52 15 -46 24 -145 55 -231 72 l-64 13 -17 50 c-18 54 -69 130 -120 178 -17
16 -34 45 -37 63 -4 23 -14 37 -29 43 -13 5 -26 14 -30 19 -10 16 -30 13 -58
-9z m-92 -187 c-42 -66 -158 -203 -166 -197 -11 6 22 54 108 157 56 67 91 91
58 40z m306 -40 c36 -58 15 -46 -24 14 -21 32 -28 48 -17 38 11 -10 30 -34 41
-52z m-149 -199 c31 -21 42 -34 40 -49 -4 -17 -2 -18 12 -6 14 12 16 12 11 -2
-4 -8 -2 -18 4 -22 6 -3 11 1 11 10 0 10 7 15 18 13 9 -2 17 -8 17 -15 0 -6 4
-15 9 -20 5 -5 6 -3 2 5 -8 14 10 17 18 3 4 -5 17 -48 31 -96 l25 -87 -22 -18
c-24 -20 -40 -24 -51 -13 -4 3 -18 7 -32 8 -13 0 -22 -1 -20 -4 8 -7 -16 -42
-24 -36 -5 2 -8 -3 -7 -13 0 -11 -6 -16 -17 -16 -13 2 -15 -1 -8 -10 8 -9 5
-18 -7 -32 -20 -21 -36 -68 -21 -58 15 9 10 -13 -6 -26 -13 -10 -19 -10 -35 5
-14 13 -17 22 -10 30 12 15 -45 5 -96 -16 -28 -11 -34 -10 -60 10 -33 26 -57
59 -59 80 -1 9 -13 35 -28 58 -15 24 -27 47 -27 52 0 5 -16 26 -35 47 -54 57
-54 80 4 137 42 41 50 45 61 32 18 -21 41 -19 33 3 -3 9 -3 14 2 10 4 -4 15 1
24 12 9 11 23 20 31 22 8 2 23 11 33 20 32 28 124 18 179 -18z m373 26 c13 -5
14 -9 5 -9 -8 0 -24 4 -35 9 -13 5 -14 9 -5 9 8 0 24 -4 35 -9z m-960 -64 c18
-13 18 -14 -8 -9 -15 3 -27 9 -27 14 0 13 13 11 35 -5z m1405 -536 c0 -21 -39
-86 -73 -123 -19 -20 -38 -44 -41 -52 -8 -22 -26 -18 -26 6 0 11 28 56 62 100
58 75 78 92 78 69z m326 -142 c25 -36 25 -58 1 -58 -8 0 -8 3 1 9 11 6 3 21
-30 62 -45 56 -88 121 -88 134 0 7 74 -86 116 -147z m-706 26 c16 -23 34 -53
39 -67 12 -30 13 -29 -89 -48 -81 -15 -103 -32 -98 -76 2 -18 3 -33 2 -33 -1
0 -26 11 -56 25 -75 34 -157 42 -236 21 -35 -9 -66 -16 -68 -16 -3 0 -4 18 -2
39 1 22 5 38 9 36 12 -8 31 24 26 44 -6 23 18 61 37 61 7 0 51 -17 97 -39 126
-57 192 -76 219 -61 18 10 21 17 16 45 -4 19 -4 63 0 99 l7 65 33 -27 c19 -15
48 -46 64 -68z m-401 22 c6 -8 25 -19 41 -26 17 -7 30 -16 30 -21 0 -11 -96
36 -105 51 -9 15 21 12 34 -4z m-269 -16 c0 -11 -53 -40 -72 -40 -16 1 43 50
60 50 6 0 12 -4 12 -10z m1204 -152 c36 -29 66 -59 66 -66 0 -7 4 -11 9 -7 6
3 18 -6 28 -21 10 -14 28 -35 41 -47 13 -12 22 -32 22 -49 0 -16 10 -42 22
-58 14 -20 18 -34 12 -40 -5 -5 -45 -13 -88 -17 -63 -5 -83 -11 -101 -29 -25
-25 -42 -97 -31 -131 3 -10 0 -28 -8 -38 -13 -18 -15 -18 -46 8 -38 32 -59 34
-93 7 -31 -25 -56 -26 -63 -2 -23 76 -108 192 -140 192 -8 0 -20 15 -28 34 -8
18 -19 37 -25 40 -6 4 -11 24 -11 44 0 30 8 43 52 84 35 34 54 46 62 38 16
-16 28 -12 21 9 -6 21 36 61 65 61 10 0 23 6 30 14 12 15 40 22 102 25 30 1
48 -8 102 -51z m-1067 -20 c-2 -32 -9 -54 -17 -56 -10 -4 -12 6 -7 42 12 82
28 92 24 14z m1453 15 c73 -24 129 -57 117 -70 -4 -3 -37 8 -74 25 -38 17 -89
36 -116 43 -26 6 -50 15 -52 20 -3 4 -12 6 -19 3 -8 -3 -17 0 -21 7 -11 17 71
3 165 -28z m-2182 -61 c28 -43 67 -91 86 -106 56 -42 46 -63 -11 -23 -37 25
-56 49 -80 99 -18 37 -41 72 -53 78 -19 10 -20 30 -1 30 4 0 31 -35 59 -78z
m1261 -31 c25 -20 32 -33 27 -46 -6 -16 -8 -16 -29 -1 -12 9 -38 24 -57 32
-45 21 -47 23 -30 34 26 16 54 10 89 -19z m-249 -18 c42 -17 112 -63 123 -81
7 -11 12 -11 24 0 13 10 19 8 39 -15 15 -17 24 -41 24 -60 l0 -32 -19 41 c-10
23 -24 45 -30 48 -16 10 -14 1 10 -46 17 -33 22 -66 26 -162 4 -108 3 -127
-17 -181 -39 -104 -130 -171 -270 -201 l-65 -13 65 2 c79 4 176 46 220 97 13
15 25 20 37 15 15 -6 6 -18 -52 -71 -56 -52 -82 -69 -133 -84 -93 -29 -194
-26 -206 6 -4 11 0 13 22 7 38 -11 117 -7 139 6 14 9 6 10 -35 5 -84 -10 -137
10 -204 77 -31 32 -58 53 -60 47 -3 -9 -13 -8 -37 1 -69 29 -120 210 -91 322
17 69 31 99 46 99 17 0 17 0 -1 -65 -19 -65 -15 -157 9 -180 13 -13 14 -20 5
-31 -10 -12 -9 -13 6 -8 14 6 16 3 11 -14 -6 -17 -4 -21 8 -16 9 3 16 2 16 -4
0 -6 -6 -13 -12 -15 -7 -3 -3 -6 10 -6 24 -1 31 -21 7 -21 -8 0 -15 -4 -15 -9
0 -4 12 -6 28 -3 26 4 27 4 7 -12 l-20 -17 20 3 c11 1 25 -1 32 -5 6 -4 -2 25
-18 63 -17 39 -27 75 -24 80 3 5 1 11 -4 14 -30 19 -18 249 15 273 9 6 13 17
9 22 -3 6 1 14 9 17 9 3 13 10 10 15 -3 5 2 12 10 15 8 3 18 15 22 26 3 11 8
17 12 14 3 -3 20 5 38 19 18 14 43 30 56 35 30 12 153 2 198 -17z m-465 1 c25
-25 15 -49 -20 -49 -21 0 -31 5 -33 18 -9 44 22 62 53 31z m-567 -117 c6 -6
13 -24 17 -38 5 -19 16 -29 44 -38 21 -6 46 -11 55 -11 10 0 16 -9 16 -25 0
-32 53 -176 85 -231 21 -36 23 -44 10 -44 -13 0 -14 -4 -5 -20 12 -22 1 -52
-23 -67 -20 -12 -61 -74 -72 -108 -11 -34 -41 -43 -77 -24 -26 15 -40 14 -85
-8 -60 -28 -83 0 -59 72 10 28 -71 110 -125 126 -37 11 -41 11 -55 -9 -17 -24
-56 -29 -72 -9 -6 7 -10 36 -8 65 2 48 6 57 47 95 66 62 101 87 122 87 25 0
44 20 61 66 25 70 39 109 42 122 4 16 68 16 82 -1z m486 -29 c12 -34 2 -58
-25 -58 -15 0 -19 -4 -15 -16 26 -69 14 -94 -46 -94 -32 0 -47 7 -74 34 -19
19 -34 41 -34 50 0 23 36 56 70 63 20 4 30 12 30 24 0 44 78 42 94 -3z m-864
-56 c0 -10 -122 -63 -180 -77 -154 -39 -102 11 62 59 89 27 118 31 118 18z
m1716 -153 c20 -55 21 -65 8 -95 -8 -18 -14 -58 -14 -88 0 -30 -4 -57 -9 -60
-4 -3 -21 0 -38 6 l-30 11 24 56 c12 31 23 73 23 93 0 20 5 49 10 64 13 32 5
61 -18 67 -14 4 -13 5 3 6 16 1 24 -12 41 -60z m204 -173 c0 -19 -73 -76 -96
-76 -16 1 -15 4 9 25 15 13 27 27 27 31 0 10 33 33 48 34 6 0 12 -6 12 -14z
m-105 -46 c-10 -11 -21 -17 -24 -14 -3 3 3 12 13 20 28 20 32 17 11 -6z
m-1870 -10 c3 -5 -1 -10 -9 -10 -9 0 -16 -4 -16 -10 0 -5 9 -10 19 -10 28 0
35 -17 11 -25 -29 -9 -25 -28 4 -21 17 4 26 1 30 -10 8 -20 -1 -34 -19 -34 -9
0 -12 -6 -9 -15 8 -21 34 -19 34 3 0 14 2 15 10 2 5 -8 10 -34 10 -57 0 -34
-3 -41 -17 -39 -23 4 -31 46 -9 46 9 0 16 5 16 10 0 6 -11 10 -24 10 -19 0
-28 11 -50 59 -26 58 -32 92 -19 104 10 10 31 8 38 -3z m2341 -21 c4 -8 1 -8
-14 0 -12 6 -24 16 -28 22 -4 8 -1 8 14 0 12 -6 24 -16 28 -22z m3 -23 c28
-19 57 -33 64 -31 15 6 44 -12 34 -21 -7 -8 -89 21 -125 44 -13 8 -28 24 -33
35 -12 21 -13 22 60 -27z m-1277 8 c176 -89 247 -269 184 -465 -15 -46 -36
-98 -48 -117 -27 -43 -107 -97 -185 -123 -55 -18 -69 -19 -115 -9 -29 6 -64
18 -78 26 -16 10 -18 13 -5 8 37 -13 102 -20 121 -14 12 4 0 9 -34 13 -80 9
-148 51 -183 112 -16 27 -34 67 -41 88 -6 20 -15 37 -19 37 -18 0 33 -130 70
-176 9 -11 1 -4 -17 15 -113 121 -122 367 -19 503 36 48 112 103 161 117 65
19 153 13 208 -15z m1028 11 l30 -15 -18 -46 c-9 -25 -48 -87 -86 -138 l-70
-93 -21 62 c-11 33 -37 84 -57 113 l-38 52 28 6 c47 10 146 44 172 59 31 18
26 18 60 0z m-292 -167 c18 -18 14 -46 -7 -58 -34 -18 -67 30 -39 58 7 7 17
12 23 12 6 0 16 -5 23 -12z m-1488 -23 c0 -17 -25 -31 -60 -36 -41 -6 -33 31
10 46 38 14 50 11 50 -10z m1006 -1 c-3 -9 -6 -23 -7 -32 0 -14 -2 -13 -9 3
-13 31 -11 45 6 45 11 0 14 -5 10 -16z m-738 -27 c21 -20 31 -57 14 -57 -15 0
-72 59 -72 74 0 19 26 11 58 -17z m1075 -11 c24 -19 23 -72 -4 -86 -15 -9 -24
-8 -35 1 -12 9 -14 6 -14 -19 0 -16 -9 -40 -19 -53 -16 -20 -23 -22 -47 -14
-58 21 -97 124 -59 155 10 8 32 11 64 7 38 -4 51 -2 55 9 7 17 35 18 59 0z
m-1348 -48 c-5 -28 -17 -41 -68 -73 -120 -77 -157 -92 -157 -62 0 17 218 181
228 172 2 -2 0 -18 -3 -37z m55 28 c0 -7 -7 -19 -15 -26 -13 -11 -15 -8 -15
14 0 16 5 26 15 26 8 0 15 -6 15 -14z m186 -97 c39 -18 44 -25 50 -65 3 -25 5
-46 3 -48 -2 -2 -39 20 -83 49 l-78 53 28 16 c36 19 30 20 80 -5z m759 -394
c2 -126 2 -221 -1 -210 -8 36 -30 459 -25 485 12 60 22 -55 26 -275z m-32 -55
c4 -123 3 -159 -3 -120 -5 30 -19 108 -31 173 -21 115 -21 118 -2 162 l18 45
6 -42 c4 -24 9 -122 12 -218z m80 32 c-17 -144 -20 -157 -22 -91 0 31 -4 105
-7 165 l-6 109 24 -38 c24 -37 24 -39 11 -145z m-133 22 c11 -54 24 -127 28
-161 8 -57 7 -63 -9 -63 -10 0 -32 21 -51 47 -18 27 -63 78 -100 114 l-69 66
43 17 c24 9 63 31 88 50 25 18 46 32 47 31 2 -1 12 -46 23 -101z m203 44 c18
-13 34 -24 36 -25 3 -2 -5 -24 -17 -51 -11 -26 -35 -80 -53 -120 -18 -40 -34
-70 -37 -67 -5 5 29 285 35 285 2 0 18 -10 36 -22z m147 -32 c0 -2 -7 -9 -15
-16 -12 -10 -15 -10 -15 4 0 9 7 16 15 16 8 0 15 -2 15 -4z m-575 -46 c3 -5 1
-10 -4 -10 -6 0 -11 5 -11 10 0 6 2 10 4 10 3 0 8 -4 11 -10z m517 -25 c-9
-11 -19 -22 -22 -25 -3 -3 -29 -34 -58 -68 -28 -35 -52 -61 -52 -59 0 3 16 38
35 78 19 41 35 78 35 84 0 6 18 11 39 10 38 0 39 -1 23 -20z m-331 -132 c23
-33 26 -43 15 -43 -17 0 -139 142 -144 169 -5 21 92 -73 129 -126z m847 45 c8
-8 8 -17 1 -30 -5 -10 -7 -22 -4 -27 3 -5 -1 -11 -7 -14 -7 -2 -9 -8 -5 -13 4
-4 17 -3 27 4 13 8 20 8 20 2 0 -6 -11 -16 -25 -22 -14 -6 -25 -16 -25 -23 0
-13 -71 -49 -149 -76 -77 -27 -80 -26 -74 21 4 26 2 40 -6 40 -6 0 -11 -12
-11 -26 l0 -26 -19 23 c-11 13 -22 21 -26 17 -4 -4 2 -19 14 -34 11 -15 21
-31 21 -35 0 -15 -48 -10 -64 7 -19 18 -21 34 -5 34 8 0 8 5 -1 15 -10 12 -10
15 3 15 10 0 13 6 10 20 -6 22 0 25 112 59 39 11 93 34 120 50 55 33 75 37 93
19z m-1394 -106 c-2 -83 -59 -96 -78 -19 -12 46 5 69 48 65 30 -3 31 -5 30
-46z m299 -209 c-7 -2 -19 -2 -25 0 -7 3 -2 5 12 5 14 0 19 -2 13 -5z"/>
<path d="M1526 2728 c3 -5 10 -6 15 -3 13 9 11 12 -6 12 -8 0 -12 -4 -9 -9z"/>
<path d="M1125 1559 c-81 -40 -174 -164 -163 -217 2 -10 11 4 21 32 23 66 55
105 124 151 32 22 62 43 68 47 17 14 -9 8 -50 -13z"/>
<path d="M945 1270 c-3 -5 -1 -10 4 -10 6 0 11 5 11 10 0 6 -2 10 -4 10 -3 0
-8 -4 -11 -10z"/>
<path d="M945 1239 c-10 -15 3 -25 16 -12 7 7 7 13 1 17 -6 3 -14 1 -17 -5z"/>
<path d="M1508 1200 c-5 -33 6 -50 16 -24 9 23 7 54 -3 54 -5 0 -11 -14 -13
-30z"/>
<path d="M1493 1120 c-2 -24 12 -27 21 -4 8 22 8 24 -7 24 -7 0 -13 -9 -14
-20z"/>
<path d="M1441 1028 c-25 -28 -69 -66 -99 -86 -60 -40 -56 -55 7 -23 48 25
103 72 132 113 37 51 6 48 -40 -4z"/>
</g>
</svg>
